<svg width="12" height="12" viewBox="0 0 12 12" fill="none" xmlns="http://www.w3.org/2000/svg">
<path d="M6 0C9.31371 0 12 2.68629 12 6C12 9.31371 9.31371 12 6 12C2.68629 12 0 9.31371 0 6C0 2.68629 2.68629 0 6 0ZM5.43555 4C5.27093 4 5.13536 4.06204 5.03516 4.19922L3.99707 5.62598L2.95898 4.19922C2.85878 4.06203 2.72289 4 2.56543 4C2.2936 4 2.11445 4.17129 2.11426 4.39746C2.11426 4.51407 2.15726 4.63153 2.22168 4.7207L3.45996 6.35938L2.10742 8.14941C2.04301 8.23858 2 8.35605 2 8.47266C2.00025 8.69878 2.18653 8.87012 2.45117 8.87012C2.60853 8.87005 2.74426 8.80801 2.85156 8.6709L3.99707 7.09375L5.14941 8.6709C5.24962 8.80808 5.38551 8.87012 5.54297 8.87012C5.81473 8.87009 5.9939 8.69877 5.99414 8.47266C5.99414 8.35605 5.95114 8.23858 5.88672 8.14941L4.53418 6.35938L5.77148 4.7207C5.84306 4.63153 5.88672 4.51407 5.88672 4.39746C5.88651 4.17129 5.70022 4 5.43555 4ZM7.20703 4.02051C6.89926 4.02051 6.67676 4.23337 6.67676 4.52832V8.40332C6.67676 8.65711 6.89208 8.87012 7.16406 8.87012C7.42867 8.86987 7.64355 8.65696 7.64355 8.40332V7.12109H8.5166C9.63301 7.12099 10.3486 6.45506 10.3486 5.57715C10.3484 4.71317 9.6328 4.02061 8.5166 4.02051H7.20703ZM8.47363 4.80957C9.01017 4.80963 9.41091 5.01513 9.41113 5.57715C9.41113 6.14638 9.01032 6.33198 8.47363 6.33203H7.64355V4.80957H8.47363Z" fill="white"/>
</svg>
