<svg width="32" height="32" viewBox="0 0 32 32" fill="none" xmlns="http://www.w3.org/2000/svg">
<path d="M8.89341 18.6665H5.33341C3.86675 18.6665 2.66675 19.8665 2.66675 21.3332V27.9998C2.66675 28.7332 3.26675 29.3332 4.00008 29.3332H8.89341C9.62675 29.3332 10.2267 28.7332 10.2267 27.9998V19.9998C10.2267 19.2665 9.62675 18.6665 8.89341 18.6665Z" fill="#96A2B3"/>
<path d="M17.7733 13.3335H14.2133C12.7466 13.3335 11.5466 14.5335 11.5466 16.0002V28.0002C11.5466 28.7335 12.1466 29.3335 12.88 29.3335H19.1066C19.84 29.3335 20.44 28.7335 20.44 28.0002V16.0002C20.44 14.5335 19.2533 13.3335 17.7733 13.3335Z" fill="#96A2B3"/>
<path d="M26.6668 22.6665H23.1068C22.3734 22.6665 21.7734 23.2665 21.7734 23.9998V27.9998C21.7734 28.7332 22.3734 29.3332 23.1068 29.3332H28.0001C28.7334 29.3332 29.3334 28.7332 29.3334 27.9998V25.3332C29.3334 23.8665 28.1334 22.6665 26.6668 22.6665Z" fill="#96A2B3"/>
<path d="M20.0133 6.46648C20.4267 6.05314 20.5867 5.55981 20.4533 5.13314C20.32 4.70648 19.9067 4.39981 19.32 4.30648L18.04 4.09314C17.9867 4.09314 17.8667 3.99981 17.84 3.94648L17.1333 2.53314C16.6 1.45314 15.3867 1.45314 14.8533 2.53314L14.1467 3.94648C14.1333 3.99981 14.0133 4.09314 13.96 4.09314L12.68 4.30648C12.0933 4.39981 11.6933 4.70648 11.5467 5.13314C11.4133 5.55981 11.5733 6.05314 11.9867 6.46648L12.9733 7.46648C13.0267 7.50648 13.0667 7.66648 13.0533 7.71981L12.7733 8.94648C12.56 9.86648 12.9067 10.2798 13.1333 10.4398C13.36 10.5998 13.8533 10.8131 14.6667 10.3331L15.8667 9.62648C15.92 9.58648 16.0933 9.58648 16.1467 9.62648L17.3333 10.3331C17.7067 10.5598 18.0133 10.6265 18.2533 10.6265C18.5333 10.6265 18.7333 10.5198 18.8533 10.4398C19.08 10.2798 19.4267 9.86648 19.2133 8.94648L18.9333 7.71981C18.92 7.65314 18.96 7.50648 19.0133 7.46648L20.0133 6.46648Z" fill="#96A2B3"/>
</svg>
