<svg width="32" height="32" viewBox="0 0 32 32" fill="none" xmlns="http://www.w3.org/2000/svg">
<path d="M22.2001 7.62646H9.80008C5.86675 7.62646 2.66675 10.8265 2.66675 14.7598V22.1998C2.66675 26.1331 5.86675 29.3331 9.80008 29.3331H22.2001C26.1334 29.3331 29.3334 26.1331 29.3334 22.1998V14.7598C29.3334 10.8265 26.1334 7.62646 22.2001 7.62646ZM19.3334 16.0265C19.3334 15.2931 19.9334 14.6931 20.6667 14.6931C21.4001 14.6931 22.0001 15.2931 22.0001 16.0265C22.0001 16.7598 21.4001 17.3731 20.6667 17.3731C19.9334 17.3731 19.3334 16.7865 19.3334 16.0531V16.0265ZM13.5067 21.4265C13.3067 21.6265 13.0534 21.7198 12.8001 21.7198C12.5467 21.7198 12.2934 21.6265 12.0934 21.4265L10.7201 20.0531L9.40008 21.3731C9.20008 21.5731 8.94675 21.6665 8.69341 21.6665C8.44008 21.6665 8.18675 21.5731 7.98675 21.3731C7.60008 20.9865 7.60008 20.3465 7.98675 19.9598L9.30675 18.6398L8.02675 17.3598C7.64008 16.9731 7.64008 16.3331 8.02675 15.9465C8.41341 15.5598 9.05341 15.5598 9.44008 15.9465L10.7201 17.2265L12.0401 15.9065C12.4267 15.5198 13.0667 15.5198 13.4534 15.9065C13.8401 16.2931 13.8401 16.9331 13.4534 17.3198L12.1334 18.6398L13.5067 20.0131C13.8934 20.3998 13.8934 21.0398 13.5067 21.4265ZM18.0534 19.9998C17.3201 19.9998 16.7067 19.3998 16.7067 18.6665C16.7067 17.9331 17.2934 17.3331 18.0267 17.3331H18.0534C18.7867 17.3331 19.3867 17.9331 19.3867 18.6665C19.3867 19.3998 18.8001 19.9998 18.0534 19.9998ZM20.6667 22.6265C19.9334 22.6265 19.3334 22.0398 19.3334 21.3065V21.2798C19.3334 20.5465 19.9334 19.9465 20.6667 19.9465C21.4001 19.9465 22.0001 20.5465 22.0001 21.2798C22.0001 22.0131 21.4134 22.6265 20.6667 22.6265ZM23.3067 19.9998C22.5734 19.9998 21.9601 19.3998 21.9601 18.6665C21.9601 17.9331 22.5467 17.3331 23.2801 17.3331H23.3067C24.0401 17.3331 24.6401 17.9331 24.6401 18.6665C24.6401 19.3998 24.0534 19.9998 23.3067 19.9998Z" fill="#96A2B3"/>
<path d="M18.1866 3.61317L18.1732 4.8665C18.1599 6.03984 17.1866 7.01317 15.9999 7.01317C15.7999 7.01317 15.6799 7.1465 15.6799 7.31984C15.6799 7.49317 15.8132 7.6265 15.9866 7.6265H13.8399C13.8266 7.53317 13.8132 7.4265 13.8132 7.31984C13.8132 6.11984 14.7866 5.1465 15.9732 5.1465C16.1732 5.1465 16.3066 5.01317 16.3066 4.83984L16.3199 3.5865C16.3332 3.07984 16.7466 2.6665 17.2532 2.6665H17.2666C17.7866 2.6665 18.1866 3.09317 18.1866 3.61317Z" fill="#96A2B3"/>
</svg>
