<svg width="32" height="32" viewBox="0 0 32 32" fill="none" xmlns="http://www.w3.org/2000/svg">
<path d="M12.6964 21.5998C12.5536 21.0461 12.265 20.5408 11.8606 20.1365C11.4563 19.7321 10.951 19.4435 10.3973 19.3007L0.581545 16.7696C0.414079 16.722 0.266688 16.6212 0.161736 16.4823C0.056784 16.3434 0 16.1741 0 16C0 15.8259 0.056784 15.6566 0.161736 15.5177C0.266688 15.3788 0.414079 15.2779 0.581545 15.2304L10.3973 12.6977C10.9508 12.555 11.456 12.2666 11.8603 11.8625C12.2646 11.4585 12.5533 10.9535 12.6964 10.4001L15.2276 0.584384C15.2746 0.416257 15.3754 0.268138 15.5145 0.162626C15.6536 0.057113 15.8234 0 15.9979 0C16.1725 0 16.3423 0.057113 16.4814 0.162626C16.6205 0.268138 16.7213 0.416257 16.7683 0.584384L19.2979 10.4001C19.4407 10.9538 19.7293 11.4591 20.1336 11.8635C20.538 12.2678 21.0433 12.5564 21.597 12.6993L31.4127 15.2288C31.5815 15.2754 31.7304 15.376 31.8365 15.5153C31.9426 15.6546 32 15.8249 32 16C32 16.1751 31.9426 16.3453 31.8365 16.4846C31.7304 16.6239 31.5815 16.7246 31.4127 16.7712L21.597 19.3007C21.0433 19.4435 20.538 19.7321 20.1336 20.1365C19.7293 20.5408 19.4407 21.0461 19.2979 21.5998L16.7667 31.4156C16.7197 31.5837 16.6189 31.7318 16.4798 31.8373C16.3407 31.9428 16.1709 32 15.9963 32C15.8218 32 15.652 31.9428 15.5129 31.8373C15.3738 31.7318 15.273 31.5837 15.226 31.4156L12.6964 21.5998Z" fill="#96A2B3"/>
<path d="M29.1036 8.0397C29.0822 7.95665 29.0389 7.88085 28.9783 7.8202C28.9176 7.75955 28.8418 7.71626 28.7588 7.69484L27.2864 7.31518C27.2613 7.30805 27.2392 7.29292 27.2235 7.27208C27.2077 7.25125 27.1992 7.22585 27.1992 7.19974C27.1992 7.17363 27.2077 7.14823 27.2235 7.1274C27.2392 7.10657 27.2613 7.09144 27.2864 7.08431L28.7588 6.70441C28.8418 6.683 28.9176 6.63975 28.9782 6.57914C29.0389 6.51854 29.0822 6.44279 29.1036 6.35978L29.4833 4.88746C29.4904 4.86224 29.5055 4.84002 29.5263 4.8242C29.5472 4.80837 29.5727 4.7998 29.5988 4.7998C29.625 4.7998 29.6505 4.80837 29.6714 4.8242C29.6922 4.84002 29.7073 4.86224 29.7144 4.88746L30.0938 6.35978C30.1152 6.44284 30.1585 6.51863 30.2192 6.57928C30.2798 6.63993 30.3556 6.68322 30.4387 6.70465L31.911 7.08407C31.9363 7.09105 31.9587 7.10615 31.9746 7.12704C31.9905 7.14794 31.9991 7.17348 31.9991 7.19974C31.9991 7.22601 31.9905 7.25154 31.9746 7.27244C31.9587 7.29333 31.9363 7.30843 31.911 7.31542L30.4387 7.69484C30.3556 7.71626 30.2798 7.75955 30.2192 7.8202C30.1585 7.88085 30.1152 7.95665 30.0938 8.0397L29.7142 9.51202C29.7071 9.53724 29.692 9.55946 29.6711 9.57529C29.6503 9.59111 29.6248 9.59968 29.5986 9.59968C29.5724 9.59968 29.547 9.59111 29.5261 9.57529C29.5052 9.55946 29.4901 9.53724 29.4831 9.51202L29.1036 8.0397Z" fill="#96A2B3"/>
<path d="M24.3038 4.83999C24.2824 4.75694 24.2391 4.68114 24.1785 4.62049C24.1178 4.55984 24.042 4.51655 23.959 4.49513L22.4866 4.11547C22.4615 4.10834 22.4394 4.09321 22.4237 4.07238C22.4079 4.05155 22.3994 4.02615 22.3994 4.00003C22.3994 3.97392 22.4079 3.94852 22.4237 3.92769C22.4394 3.90686 22.4615 3.89173 22.4866 3.8846L23.959 3.5047C24.042 3.48329 24.1178 3.44004 24.1784 3.37944C24.2391 3.31883 24.2824 3.24309 24.3038 3.16008L24.6835 1.68775C24.6905 1.66253 24.7057 1.64032 24.7265 1.62449C24.7474 1.60866 24.7729 1.6001 24.799 1.6001C24.8252 1.6001 24.8507 1.60866 24.8716 1.62449C24.8924 1.64032 24.9075 1.66253 24.9146 1.68775L25.294 3.16008C25.3154 3.24313 25.3587 3.31892 25.4194 3.37957C25.48 3.44022 25.5558 3.48351 25.6389 3.50494L27.1112 3.88436C27.1365 3.89134 27.1588 3.90644 27.1748 3.92734C27.1907 3.94823 27.1993 3.97377 27.1993 4.00003C27.1993 4.0263 27.1907 4.05184 27.1748 4.07273C27.1588 4.09363 27.1365 4.10873 27.1112 4.11571L25.6389 4.49513C25.5558 4.51655 25.48 4.55984 25.4194 4.62049C25.3587 4.68114 25.3154 4.75694 25.294 4.83999L24.9144 6.31232C24.9073 6.33753 24.8922 6.35975 24.8713 6.37558C24.8505 6.3914 24.825 6.39997 24.7988 6.39997C24.7726 6.39997 24.7471 6.3914 24.7263 6.37558C24.7054 6.35975 24.6903 6.33753 24.6832 6.31232L24.3038 4.83999Z" fill="#96A2B3"/>
</svg>
