<svg width="32" height="32" viewBox="0 0 32 32" fill="none" xmlns="http://www.w3.org/2000/svg">
<path d="M10.3999 29.5335C6.86657 29.5335 3.98657 26.6668 3.98657 23.1202V19.3335C3.98657 18.4402 4.86657 17.8402 5.70657 18.1335C6.05324 18.2535 6.39991 18.3335 6.75991 18.3868C6.91991 18.4135 7.07991 18.4401 7.23991 18.4401C7.43991 18.4668 7.65324 18.4801 7.85324 18.4801C9.33324 18.4801 10.7999 17.9335 11.9599 16.9868C13.0666 17.9335 14.4932 18.4801 16.0132 18.4801C17.5332 18.4801 18.9466 17.9602 20.0532 17.0002C21.1999 17.9335 22.6399 18.4801 24.1066 18.4801C24.3332 18.4801 24.5732 18.4668 24.7866 18.4401C24.9466 18.4268 25.0799 18.4135 25.2266 18.3868C25.6266 18.3335 25.9866 18.2268 26.3466 18.1068C27.1732 17.8268 28.0399 18.4401 28.0399 19.3068V23.1202C28.0399 26.6535 25.1732 29.5335 21.6266 29.5335H10.3999Z" fill="#96A2B3"/>
<path d="M29.3066 11.4535L28.9332 7.9068C28.3999 4.04013 26.6399 2.4668 22.8799 2.4668H19.8666H17.9732H14.0799H12.1732H9.09322C5.33322 2.4668 3.58655 4.04013 3.03988 7.9468L2.69322 11.4668C2.55988 12.8401 2.93322 14.1735 3.74655 15.2135C4.71988 16.4801 6.21322 17.2001 7.87988 17.2001C9.49322 17.2001 11.0399 16.3868 12.0132 15.0935C12.8799 16.3868 14.3732 17.2001 16.0266 17.2001C17.6799 17.2001 19.1332 16.4268 20.0132 15.1468C20.9999 16.4135 22.5199 17.2001 24.1199 17.2001C25.8266 17.2001 27.3599 16.4401 28.3199 15.1068C29.0932 14.0801 29.4399 12.7868 29.3066 11.4535ZM17.9999 10.3068H16.9999V11.3468C16.9999 11.9068 16.5466 12.3468 15.9999 12.3468C15.4532 12.3468 14.9999 11.9068 14.9999 11.3468V10.3068H13.9999C13.4532 10.3068 12.9999 9.8668 12.9999 9.3068C12.9999 8.76013 13.4532 8.3068 13.9999 8.3068H14.9999V7.36013C14.9999 6.81346 15.4532 6.36013 15.9999 6.36013C16.5466 6.36013 16.9999 6.81346 16.9999 7.36013V8.3068H17.9999C18.5466 8.3068 18.9999 8.76013 18.9999 9.3068C18.9999 9.8668 18.5466 10.3068 17.9999 10.3068Z" fill="#96A2B3"/>
</svg>
