<svg width="32" height="32" viewBox="0 0 32 32" fill="none" xmlns="http://www.w3.org/2000/svg">
<path d="M29.3334 15.9998C29.3334 8.65317 23.3467 2.6665 16.0001 2.6665C8.65341 2.6665 2.66675 8.65317 2.66675 15.9998C2.66675 19.8665 4.33341 23.3465 6.97341 25.7865C6.97341 25.7998 6.97341 25.7998 6.96008 25.8132C7.09341 25.9465 7.25341 26.0532 7.38675 26.1732C7.46675 26.2398 7.53341 26.3065 7.61341 26.3598C7.85341 26.5598 8.12008 26.7465 8.37342 26.9332C8.46675 26.9998 8.54675 27.0532 8.64008 27.1198C8.89341 27.2932 9.16008 27.4532 9.44008 27.5998C9.53341 27.6532 9.64008 27.7198 9.73342 27.7732C10.0001 27.9198 10.2801 28.0532 10.5734 28.1732C10.6801 28.2265 10.7867 28.2798 10.8934 28.3198C11.1867 28.4398 11.4801 28.5465 11.7734 28.6398C11.8801 28.6798 11.9867 28.7198 12.0934 28.7465C12.4134 28.8398 12.7334 28.9198 13.0534 28.9998C13.1467 29.0265 13.2401 29.0532 13.3467 29.0665C13.7201 29.1465 14.0934 29.1998 14.4801 29.2398C14.5334 29.2398 14.5867 29.2532 14.6401 29.2665C15.0934 29.3065 15.5467 29.3332 16.0001 29.3332C16.4534 29.3332 16.9067 29.3065 17.3467 29.2665C17.4001 29.2665 17.4534 29.2532 17.5067 29.2398C17.8934 29.1998 18.2667 29.1465 18.6401 29.0665C18.7334 29.0532 18.8267 29.0132 18.9334 28.9998C19.2534 28.9198 19.5867 28.8532 19.8934 28.7465C20.0001 28.7065 20.1067 28.6665 20.2134 28.6398C20.5067 28.5332 20.8134 28.4398 21.0934 28.3198C21.2001 28.2798 21.3067 28.2265 21.4134 28.1732C21.6934 28.0532 21.9734 27.9198 22.2534 27.7732C22.3601 27.7198 22.4534 27.6532 22.5467 27.5998C22.8134 27.4398 23.0801 27.2932 23.3467 27.1198C23.4401 27.0665 23.5201 26.9998 23.6134 26.9332C23.8801 26.7465 24.1334 26.5598 24.3734 26.3598C24.4534 26.2932 24.5201 26.2265 24.6001 26.1732C24.7467 26.0532 24.8934 25.9332 25.0267 25.8132C25.0267 25.7998 25.0267 25.7998 25.0134 25.7865C27.6667 23.3465 29.3334 19.8665 29.3334 15.9998ZM22.5867 22.6265C18.9734 20.1998 13.0534 20.1998 9.41341 22.6265C8.82675 23.0132 8.34675 23.4665 7.94675 23.9598C5.92008 21.9065 4.66675 19.0932 4.66675 15.9998C4.66675 9.7465 9.74675 4.6665 16.0001 4.6665C22.2534 4.6665 27.3334 9.7465 27.3334 15.9998C27.3334 19.0932 26.0801 21.9065 24.0534 23.9598C23.6667 23.4665 23.1734 23.0132 22.5867 22.6265Z" fill="#96A2B3"/>
<path d="M16 9.24023C13.24 9.24023 11 11.4802 11 14.2402C11 16.9469 13.12 19.1469 15.9333 19.2269C15.9733 19.2269 16.0267 19.2269 16.0533 19.2269C16.08 19.2269 16.12 19.2269 16.1467 19.2269C16.16 19.2269 16.1733 19.2269 16.1733 19.2269C18.8667 19.1336 20.9867 16.9469 21 14.2402C21 11.4802 18.76 9.24023 16 9.24023Z" fill="#96A2B3"/>
</svg>
