<svg width="32" height="32" viewBox="0 0 32 32" fill="none" xmlns="http://www.w3.org/2000/svg">
<path d="M15.5609 28.281C15.9776 28.6685 16.6082 28.8361 17.1511 28.6557C17.6312 28.1899 17.9815 27.5352 17.9193 26.8471C17.8456 25.8159 17.2695 24.928 16.8588 24.0079C16.1298 22.5691 15.477 21.0551 15.2976 19.4347C15.1146 17.7306 15.381 15.9851 16.0356 14.4042C15.05 14.3423 14.0831 14.1194 13.1392 13.8382C12.3402 16.0003 11.0308 17.9698 9.34888 19.538C9.5053 20.5534 9.64964 21.5713 9.80304 22.5879C9.86947 22.9633 10.0615 23.3131 10.3484 23.5639C12.0841 25.1381 13.8246 26.7074 15.5609 28.281Z" fill="url(#paint0_linear_3201_3873)"/>
<path d="M19.0554 26.7859C20.0386 25.4953 21.0551 24.2303 22.051 22.9488C22.2853 22.6275 22.5915 22.3415 22.7098 21.9504C22.7714 21.7657 22.8028 21.5714 22.8053 21.377C22.8192 20.31 22.8777 19.2399 23.0674 18.1886C23.1882 17.5381 23.3567 16.8883 23.6689 16.3016C24.2148 15.1775 24.8786 14.1122 25.6395 13.1223C25.8455 12.8623 25.8769 12.4773 25.7156 12.1864C25.1002 11.1072 24.4268 10.0626 23.7492 9.0222C23.2618 10.2423 22.5486 11.3762 21.6294 12.3133C20.5019 13.5158 18.9129 14.2689 17.2744 14.3819C16.5691 15.8722 16.2689 17.5539 16.4175 19.1973C16.5751 20.4217 16.9326 21.6212 17.4816 22.7259C17.8452 23.4486 18.1991 24.1768 18.5403 24.9105C18.7885 25.5099 19.0059 26.1348 19.0554 26.7859Z" fill="url(#paint1_linear_3201_3873)"/>
<path d="M9.13879 18.1643C10.2845 16.9654 11.2115 15.5552 11.8643 14.0272C12.493 12.6054 12.7346 11.0136 12.5601 9.4674C12.3946 7.96001 11.8287 6.50304 10.95 5.27138C9.66784 6.59657 8.38508 7.92114 7.10354 9.24754C6.81305 9.5591 6.46156 9.83422 6.284 10.2326C6.06719 10.6857 6.0696 11.2347 6.28219 11.689C7.16755 13.6731 8.05352 15.6573 8.9407 17.6408C9.02284 17.8084 9.08202 17.9864 9.13879 18.1643Z" fill="url(#paint2_linear_3201_3873)"/>
<path d="M13.4642 12.7402C14.384 13.0614 15.3539 13.2327 16.3268 13.2618C16.8698 13.2673 17.4193 13.2612 17.952 13.1416C18.5807 13.0049 19.1889 12.7638 19.7342 12.4201C20.2663 12.1019 20.7096 11.6609 21.1184 11.1982C21.9712 10.21 22.6536 9.0464 23.0087 7.78619C22.7201 7.14182 22.5129 6.46344 22.3728 5.77108C22.2623 5.29737 22.2707 4.78418 22.0195 4.35298C21.633 3.58289 20.7265 3.05512 19.8683 3.26465C18.5312 3.64484 17.1977 4.04021 15.8413 4.34508C14.5639 4.61899 13.254 4.66575 11.9543 4.73559C12.5613 5.62533 13.0463 6.60312 13.3428 7.64165C13.8265 9.29175 13.8676 11.0694 13.4642 12.7402Z" fill="url(#paint3_linear_3201_3873)"/>
<defs>
<linearGradient id="paint0_linear_3201_3873" x1="15.3355" y1="14.7043" x2="17.9543" y2="26.7797" gradientUnits="userSpaceOnUse">
<stop stop-color="#C8EBF8"/>
<stop offset="1" stop-color="#4EBDE8"/>
</linearGradient>
<linearGradient id="paint1_linear_3201_3873" x1="17.1294" y1="14.7044" x2="21.66" y2="23.4804" gradientUnits="userSpaceOnUse">
<stop stop-color="#C8EBF8"/>
<stop offset="1" stop-color="#4EBDE8"/>
</linearGradient>
<linearGradient id="paint2_linear_3201_3873" x1="14.0833" y1="5.27138" x2="14.0833" y2="5.27138" gradientUnits="userSpaceOnUse">
<stop stop-color="#C8EBF8"/>
<stop offset="1" stop-color="#4EBDE8"/>
</linearGradient>
<linearGradient id="paint3_linear_3201_3873" x1="21.0992" y1="3.21843" x2="13.5859" y2="12.7579" gradientUnits="userSpaceOnUse">
<stop stop-color="#C8EBF8"/>
<stop offset="1" stop-color="#4EBDE8"/>
</linearGradient>
</defs>
</svg>
